{
  "accessors": [
    {
      "bufferView": 2,
      "componentType": 5126,
      "count": 96,
      "max": [
        4.9180498123168945,
        -29.454498291015625,
        45.277801513671875
      ],
      "min": [
        -4.9180498123168945,
        -38.317298889160156,
        42.24700164794922
      ],
      "type": "VEC3"
    },
    {
      "bufferView": 2,
      "byteOffset": 1152,
      "componentType": 5126,
      "count": 96,
      "max": [
        0.5344229936599731,
        0.07902922481298447,
        -0.5219380855560303
      ],
      "min": [
        -0.5344229936599731,
        -0.824325680732727,
        -0.9991756677627563
      ],
      "type": "VEC3"
    },
    {
      "bufferView": 1,
      "componentType": 5126,
      "count": 96,
      "max": [
        1.0,
        0.240234375
      ],
      "min": [
        0.8818359375,
        0.1220703125
      ],
      "type": "VEC2"
    },
    {
      "bufferView": 1,
      "byteOffset": 768,
      "componentType": 5126,
      "count": 96,
      "max": [
        1.0,
        0.240234375
      ],
      "min": [
        0.8818359375,
        0.1220703125
      ],
      "type": "VEC2"
    },
    {
      "bufferView": 1,
      "byteOffset": 1536,
      "componentType": 5126,
      "count": 96,
      "max": [
        1.0,
        0.240234375
      ],
      "min": [
        0.8818359375,
        0.1220703125
      ],
      "type": "VEC2"
    },
    {
      "bufferView": 0,
      "componentType": 5125,
      "count": 96,
      "type": "SCALAR"
    },
    {
      "bufferView": 2,
      "byteOffset": 2304,
      "componentType": 5126,
      "count": 17732,
      "max": [
        24.574604034423828,
        116.02699279785156,
        92.0364990234375
      ],
      "min": [
        -24.57459831237793,
        -40.752601623535156,
        -0.22206200659275055
      ],
      "type": "VEC3"
    },
    {
      "bufferView": 2,
      "byteOffset": 215088,
      "componentType": 5126,
      "count": 17732,
      "max": [
        0.999990701675415,
        1.0,
        0.9999994039535522
      ],
      "min": [
        -0.9999909400939941,
        -0.999984622001648,
        -1.0
      ],
      "type": "VEC3"
    },
    {
      "bufferView": 1,
      "byteOffset": 2304,
      "componentType": 5126,
      "count": 17732,
      "max": [
        0.8798828125,
        0.8798828125
      ],
      "min": [
        0.001953125,
        0.001953125
      ],
      "type": "VEC2"
    },
    {
      "bufferView": 1,
      "byteOffset": 144160,
      "componentType": 5126,
      "count": 17732,
      "max": [
        0.8798828125,
        0.8798828125
      ],
      "min": [
        0.001953125,
        0.001953125
      ],
      "type": "VEC2"
    },
    {
      "bufferView": 1,
      "byteOffset": 286016,
      "componentType": 5126,
      "count": 17732,
      "max": [
        0.8798828125,
        0.8798828125
      ],
      "min": [
        0.001953125,
        0.001953125
      ],
      "type": "VEC2"
    },
    {
      "bufferView": 0,
      "byteOffset": 384,
      "componentType": 5125,
      "count": 18624,
      "type": "SCALAR"
    },
    {
      "bufferView": 2,
      "byteOffset": 427872,
      "componentType": 5126,
      "count": 300,
      "max": [
        10.657099723815918,
        -30.530593872070313,
        56.229000091552734
      ],
      "min": [
        -10.657099723815918,
        -40.519798278808594,
        44.81950378417969
      ],
      "type": "VEC3"
    },
    {
      "bufferView": 2,
      "byteOffset": 431472,
      "componentType": 5126,
      "count": 300,
      "max": [
        0.92244553565979,
        -0.04240855947136879,
        0.04065234959125519
      ],
      "min": [
        -0.9224455952644348,
        -0.9999703168869019,
        -0.5661158561706543
      ],
      "type": "VEC3"
    },
    {
      "bufferView": 1,
      "byteOffset": 427872,
      "componentType": 5126,
      "count": 300,
      "max": [
        1.0,
        0.1201171875
      ],
      "min": [
        0.8818359375,
        0.001953125
      ],
      "type": "VEC2"
    },
    {
      "bufferView": 1,
      "byteOffset": 430272,
      "componentType": 5126,
      "count": 300,
      "max": [
        1.0,
        0.1201171875
      ],
      "min": [
        0.8818359375,
        0.001953125
      ],
      "type": "VEC2"
    },
    {
      "bufferView": 1,
      "byteOffset": 432672,
      "componentType": 5126,
      "count": 300,
      "max": [
        1.0,
        0.1201171875
      ],
      "min": [
        0.8818359375,
        0.001953125
      ],
      "type": "VEC2"
    },
    {
      "bufferView": 0,
      "byteOffset": 74880,
      "componentType": 5125,
      "count": 300,
      "type": "SCALAR"
    }
  ],
  "asset": {
    "extras": {
      "author": "hkgiao79 (https://sketchfab.com/hkgiao79)",
      "license": "CC-BY-4.0 (http://creativecommons.org/licenses/by/4.0/)",
      "source": "https://sketchfab.com/3d-models/leafeon-3d-render-fdada6578c87476ab97f0b6189ecc597",
      "title": "Leafeon 3D Render"
    },
    "generator": "Sketchfab-12.66.0",
    "version": "2.0"
  },
  "bufferViews": [
    {
      "buffer": 0,
      "byteLength": 76080,
      "name": "floatBufferViews",
      "target": 34963
    },
    {
      "buffer": 0,
      "byteLength": 435072,
      "byteOffset": 76080,
      "byteStride": 8,
      "name": "floatBufferViews",
      "target": 34962
    },
    {
      "buffer": 0,
      "byteLength": 435072,
      "byteOffset": 511152,
      "byteStride": 12,
      "name": "floatBufferViews",
      "target": 34962
    }
  ],
  "buffers": [
    {
      "byteLength": 946224,
      "uri": "scene.bin"
    }
  ],
  "extensionsRequired": [
    "KHR_materials_pbrSpecularGlossiness"
  ],
  "extensionsUsed": [
    "KHR_materials_pbrSpecularGlossiness"
  ],
  "images": [
    {
      "uri": "textures/material_0_diffuse.png"
    },
    {
      "uri": "textures/material_0_specularGlossiness.png"
    }
  ],
  "materials": [
    {
      "doubleSided": true,
      "extensions": {
        "KHR_materials_pbrSpecularGlossiness": {
          "diffuseFactor": [
            1.0,
            1.0,
            1.0,
            1.0
          ],
          "diffuseTexture": {
            "index": 0
          },
          "glossinessFactor": 1.0,
          "specularFactor": [
            1.0,
            1.0,
            1.0
          ],
          "specularGlossinessTexture": {
            "index": 1
          }
        }
      },
      "name": "material_0"
    }
  ],
  "meshes": [
    {
      "name": "Object_0",
      "primitives": [
        {
          "attributes": {
            "NORMAL": 1,
            "POSITION": 0,
            "TEXCOORD_0": 2,
            "TEXCOORD_1": 3,
            "TEXCOORD_2": 4
          },
          "indices": 5,
          "material": 0,
          "mode": 4
        }
      ]
    },
    {
      "name": "Object_1",
      "primitives": [
        {
          "attributes": {
            "NORMAL": 7,
            "POSITION": 6,
            "TEXCOORD_0": 8,
            "TEXCOORD_1": 9,
            "TEXCOORD_2": 10
          },
          "indices": 11,
          "material": 0,
          "mode": 4
        }
      ]
    },
    {
      "name": "Object_2",
      "primitives": [
        {
          "attributes": {
            "NORMAL": 13,
            "POSITION": 12,
            "TEXCOORD_0": 14,
            "TEXCOORD_1": 15,
            "TEXCOORD_2": 16
          },
          "indices": 17,
          "material": 0,
          "mode": 4
        }
      ]
    }
  ],
  "nodes": [
    {
      "children": [
        1
      ],
      "matrix": [
        1.0,
        0.0,
        0.0,
        0.0,
        0.0,
        2.220446049250313e-16,
        -1.0,
        0.0,
        0.0,
        1.0,
        2.220446049250313e-16,
        0.0,
        0.0,
        0.0,
        0.0,
        1.0
      ],
      "name": "Sketchfab_model"
    },
    {
      "children": [
        2
      ],
      "name": "root"
    },
    {
      "children": [
        3
      ],
      "matrix": [
        1.0,
        0.0,
        0.0,
        0.0,
        0.0,
        2.220446049250313e-16,
        1.0,
        0.0,
        0.0,
        -1.0,
        2.220446049250313e-16,
        0.0,
        0.0,
        0.0,
        0.0,
        1.0
      ],
      "name": "GLTF_SceneRootNode"
    },
    {
      "children": [
        4
      ],
      "name": "root_0"
    },
    {
      "children": [
        5
      ],
      "matrix": [
        73.2829360961914,
        0.0,
        0.0,
        0.0,
        0.0,
        73.2829360961914,
        0.0,
        0.0,
        0.0,
        0.0,
        73.2829360961914,
        0.0,
        -3.1545638323748904e-10,
        7.450581124279765e-11,
        156.5873260498047,
        1.0
      ],
      "name": "node_id22_1"
    },
    {
      "children": [
        6,
        8,
        10
      ],
      "matrix": [
        1.0,
        0.0,
        0.0,
        0.0,
        0.0,
        1.0,
        0.0,
        0.0,
        0.0,
        0.0,
        1.0,
        0.0,
        -7.266998380828227e-08,
        -1.1660434007644653,
        0.9559847712516785,
        1.0
      ],
      "name": "node_id23_2"
    },
    {
      "children": [
        7
      ],
      "matrix": [
        0.02539999969303608,
        -0.0,
        0.0,
        0.0,
        0.0,
        4.282119516290986e-09,
        -0.025399997830390566,
        0.0,
        0.0,
        0.025399997830390566,
        4.282119516290986e-09,
        0.0,
        0.0,
        0.0,
        0.0,
        1.0
      ],
      "name": "_3"
    },
    {
      "mesh": 0,
      "name": "Object_7"
    },
    {
      "children": [
        9
      ],
      "matrix": [
        0.02539999969303608,
        -0.0,
        0.0,
        0.0,
        0.0,
        4.282119516290986e-09,
        -0.025399997830390566,
        0.0,
        0.0,
        0.025399997830390566,
        4.282119516290986e-09,
        0.0,
        0.0,
        0.0,
        0.0,
        1.0
      ],
      "name": "_4"
    },
    {
      "mesh": 1,
      "name": "Object_9"
    },
    {
      "children": [
        11
      ],
      "matrix": [
        0.02539999969303608,
        -0.0,
        0.0,
        0.0,
        0.0,
        4.282119516290986e-09,
        -0.025399997830390566,
        0.0,
        0.0,
        0.025399997830390566,
        4.282119516290986e-09,
        0.0,
        0.0,
        0.0,
        0.0,
        1.0
      ],
      "name": "_5"
    },
    {
      "mesh": 2,
      "name": "Object_11"
    }
  ],
  "samplers": [
    {
      "magFilter": 9729,
      "minFilter": 9987,
      "wrapS": 10497,
      "wrapT": 10497
    }
  ],
  "scene": 0,
  "scenes": [
    {
      "name": "Sketchfab_Scene",
      "nodes": [
        0
      ]
    }
  ],
  "textures": [
    {
      "sampler": 0,
      "source": 0
    },
    {
      "sampler": 0,
      "source": 1
    }
  ]
}
