{
  "accessors": [
    {
      "bufferView": 2,
      "componentType": 5126,
      "count": 2257,
      "max": [
        30.42840003967285,
        128.2989959716797,
        73.46989440917969
      ],
      "min": [
        -30.42840003967285,
        -48.64609909057617,
        11.315999984741211
      ],
      "type": "VEC3"
    },
    {
      "bufferView": 2,
      "byteOffset": 27084,
      "componentType": 5126,
      "count": 2257,
      "max": [
        0.9999788999557495,
        0.9999966621398926,
        0.9999567866325378
      ],
      "min": [
        -0.9999788999557495,
        -1.0,
        -0.9995598196983337
      ],
      "type": "VEC3"
    },
    {
      "bufferView": 1,
      "componentType": 5126,
      "count": 2257,
      "max": [
        0.0,
        0.0
      ],
      "min": [
        0.0,
        0.0
      ],
      "type": "VEC2"
    },
    {
      "bufferView": 1,
      "byteOffset": 18056,
      "componentType": 5126,
      "count": 2257,
      "max": [
        0.5810546278953552,
        0.998046875
      ],
      "min": [
        0.001953125,
        0.4189453125
      ],
      "type": "VEC2"
    },
    {
      "bufferView": 0,
      "componentType": 5125,
      "count": 9372,
      "type": "SCALAR"
    },
    {
      "bufferView": 2,
      "byteOffset": 54168,
      "componentType": 5126,
      "count": 1915,
      "max": [
        32.45940017700195,
        26.29990005493164,
        79.60340881347656
      ],
      "min": [
        -32.45940017700195,
        -49.91019821166992,
        -1.8334100246429443
      ],
      "type": "VEC3"
    },
    {
      "bufferView": 2,
      "byteOffset": 77148,
      "componentType": 5126,
      "count": 1915,
      "max": [
        0.999272882938385,
        0.9999744892120361,
        0.9998346567153931
      ],
      "min": [
        -0.9992730021476746,
        -0.9946196675300598,
        -1.0
      ],
      "type": "VEC3"
    },
    {
      "bufferView": 1,
      "byteOffset": 36112,
      "componentType": 5126,
      "count": 1915,
      "max": [
        1.0,
        0.998046875
      ],
      "min": [
        0.5830078125,
        0.5810546875
      ],
      "type": "VEC2"
    },
    {
      "bufferView": 0,
      "byteOffset": 37488,
      "componentType": 5125,
      "count": 8916,
      "type": "SCALAR"
    },
    {
      "bufferView": 2,
      "byteOffset": 100128,
      "componentType": 5126,
      "count": 50,
      "max": [
        11.635299682617188,
        -36.8306999206543,
        51.88349914550781
      ],
      "min": [
        -11.635299682617188,
        -47.71429443359375,
        38.70100021362305
      ],
      "type": "VEC3"
    },
    {
      "bufferView": 2,
      "byteOffset": 100728,
      "componentType": 5126,
      "count": 50,
      "max": [
        0.9511455297470093,
        -0.3066003620624542,
        0.6274821758270264
      ],
      "min": [
        -0.951145589351654,
        -0.9275202751159668,
        0.03631007671356201
      ],
      "type": "VEC3"
    },
    {
      "bufferView": 1,
      "byteOffset": 51432,
      "componentType": 5126,
      "count": 50,
      "max": [
        0.64453125,
        0.5791015625
      ],
      "min": [
        0.5830078125,
        0.517578125
      ],
      "type": "VEC2"
    },
    {
      "bufferView": 0,
      "byteOffset": 73152,
      "componentType": 5125,
      "count": 192,
      "type": "SCALAR"
    },
    {
      "bufferView": 2,
      "byteOffset": 101328,
      "componentType": 5126,
      "count": 15,
      "max": [
        6.012350082397461,
        -43.6057014465332,
        36.89099884033203
      ],
      "min": [
        -6.012199878692627,
        -49.129295349121094,
        32.74100112915039
      ],
      "type": "VEC3"
    },
    {
      "bufferView": 2,
      "byteOffset": 101508,
      "componentType": 5126,
      "count": 15,
      "max": [
        0.5190374255180359,
        -0.439334899187088,
        -0.40422025322914124
      ],
      "min": [
        -0.5190114378929138,
        -0.845018208026886,
        -0.8732826709747314
      ],
      "type": "VEC3"
    },
    {
      "bufferView": 1,
      "byteOffset": 51832,
      "componentType": 5126,
      "count": 15,
      "max": [
        0.7080078125,
        0.5791015625
      ],
      "min": [
        0.646484375,
        0.517578125
      ],
      "type": "VEC2"
    },
    {
      "bufferView": 0,
      "byteOffset": 73920,
      "componentType": 5125,
      "count": 48,
      "type": "SCALAR"
    }
  ],
  "asset": {
    "extras": {
      "author": "31schrci (https://sketchfab.com/31schrci)",
      "license": "CC-BY-4.0 (http://creativecommons.org/licenses/by/4.0/)",
      "source": "https://sketchfab.com/3d-models/flareon-3d-render-21c06e70b38543e39c0de635e047a760",
      "title": "Flareon 3D Render"
    },
    "generator": "Sketchfab-14.63.0",
    "version": "2.0"
  },
  "bufferViews": [
    {
      "buffer": 0,
      "byteLength": 74112,
      "name": "floatBufferViews",
      "target": 34963
    },
    {
      "buffer": 0,
      "byteLength": 51952,
      "byteOffset": 74112,
      "byteStride": 8,
      "name": "floatBufferViews",
      "target": 34962
    },
    {
      "buffer": 0,
      "byteLength": 101688,
      "byteOffset": 126064,
      "byteStride": 12,
      "name": "floatBufferViews",
      "target": 34962
    }
  ],
  "buffers": [
    {
      "byteLength": 227752,
      "uri": "scene.bin"
    }
  ],
  "images": [
    {
      "uri": "textures/material_0_baseColor.jpeg"
    }
  ],
  "materials": [
    {
      "doubleSided": true,
      "name": "material_0",
      "pbrMetallicRoughness": {
        "baseColorTexture": {
          "index": 0
        },
        "metallicFactor": 0.0,
        "roughnessFactor": 0.5
      }
    }
  ],
  "meshes": [
    {
      "name": "Object_0",
      "primitives": [
        {
          "attributes": {
            "NORMAL": 1,
            "POSITION": 0,
            "TEXCOORD_0": 2,
            "TEXCOORD_1": 3
          },
          "indices": 4,
          "material": 0,
          "mode": 4
        }
      ]
    },
    {
      "name": "Object_1",
      "primitives": [
        {
          "attributes": {
            "NORMAL": 6,
            "POSITION": 5,
            "TEXCOORD_0": 7
          },
          "indices": 8,
          "material": 0,
          "mode": 4
        }
      ]
    },
    {
      "name": "Object_2",
      "primitives": [
        {
          "attributes": {
            "NORMAL": 10,
            "POSITION": 9,
            "TEXCOORD_0": 11
          },
          "indices": 12,
          "material": 0,
          "mode": 4
        }
      ]
    },
    {
      "name": "Object_3",
      "primitives": [
        {
          "attributes": {
            "NORMAL": 14,
            "POSITION": 13,
            "TEXCOORD_0": 15
          },
          "indices": 16,
          "material": 0,
          "mode": 4
        }
      ]
    }
  ],
  "nodes": [
    {
      "children": [
        1
      ],
      "matrix": [
        1.0,
        0.0,
        0.0,
        0.0,
        0.0,
        2.220446049250313e-16,
        -1.0,
        0.0,
        0.0,
        1.0,
        2.220446049250313e-16,
        0.0,
        0.0,
        0.0,
        0.0,
        1.0
      ],
      "name": "Sketchfab_model"
    },
    {
      "children": [
        2
      ],
      "matrix": [
        0.009999999776482582,
        0.0,
        0.0,
        0.0,
        0.0,
        2.2204459996194763e-18,
        0.009999999776482582,
        0.0,
        0.0,
        -0.009999999776482582,
        2.2204459996194763e-18,
        0.0,
        0.0,
        0.0,
        0.0,
        1.0
      ],
      "name": "USDRoot"
    },
    {
      "children": [
        3
      ],
      "name": "scene"
    },
    {
      "children": [
        4
      ],
      "matrix": [
        1.7787445783615112,
        0.0,
        0.0,
        0.0,
        0.0,
        1.7787445783615112,
        0.0,
        0.0,
        0.0,
        0.0,
        1.7787445783615112,
        0.0,
        5.611094922031157e-10,
        0.0,
        -328.2473449707031,
        1.0
      ],
      "name": "Meshes"
    },
    {
      "children": [
        5
      ],
      "matrix": [
        1.0,
        0.0,
        0.0,
        0.0,
        0.0,
        2.220446049250313e-16,
        -1.0,
        0.0,
        0.0,
        1.0,
        2.220446049250313e-16,
        0.0,
        0.0,
        0.0,
        0.0,
        1.0
      ],
      "name": "Sketchfab_model"
    },
    {
      "children": [
        6
      ],
      "name": "root"
    },
    {
      "children": [
        7
      ],
      "matrix": [
        1.0,
        0.0,
        0.0,
        0.0,
        0.0,
        2.220446049250313e-16,
        1.0,
        0.0,
        0.0,
        -1.0,
        2.220446049250313e-16,
        0.0,
        0.0,
        0.0,
        0.0,
        1.0
      ],
      "name": "GLTF_SceneRootNode"
    },
    {
      "children": [
        8
      ],
      "name": "root_0"
    },
    {
      "children": [
        9
      ],
      "matrix": [
        81.53669738769531,
        0.0,
        0.0,
        0.0,
        0.0,
        81.53669738769531,
        0.0,
        0.0,
        0.0,
        0.0,
        81.53669738769531,
        0.0,
        -3.1545638323748904e-10,
        7.450581124279765e-11,
        184.53875732421875,
        1.0
      ],
      "name": "node_id22_1"
    },
    {
      "children": [
        10,
        13,
        16,
        19
      ],
      "matrix": [
        1.0,
        0.0,
        0.0,
        0.0,
        0.0,
        1.0,
        0.0,
        0.0,
        0.0,
        0.0,
        1.0,
        0.0,
        0.0,
        -0.9876790046691895,
        0.9955377578735352,
        1.0
      ],
      "name": "node_id23_2"
    },
    {
      "children": [
        11
      ],
      "matrix": [
        0.02539999969303608,
        0.0,
        0.0,
        0.0,
        0.0,
        4.282119547838192e-09,
        -0.02539999783039093,
        0.0,
        0.0,
        0.02539999783039093,
        4.282119547838192e-09,
        0.0,
        0.0,
        0.0,
        0.0,
        1.0
      ],
      "name": "_3"
    },
    {
      "children": [
        12
      ],
      "name": "Object_7"
    },
    {
      "mesh": 0,
      "name": "Object_0"
    },
    {
      "children": [
        14
      ],
      "matrix": [
        0.02539999969303608,
        0.0,
        0.0,
        0.0,
        0.0,
        4.282119547838192e-09,
        -0.02539999783039093,
        0.0,
        0.0,
        0.02539999783039093,
        4.282119547838192e-09,
        0.0,
        0.0,
        0.0,
        0.0,
        1.0
      ],
      "name": "_4"
    },
    {
      "children": [
        15
      ],
      "name": "Object_9"
    },
    {
      "mesh": 1,
      "name": "Object_1"
    },
    {
      "children": [
        17
      ],
      "matrix": [
        0.02539999969303608,
        0.0,
        0.0,
        0.0,
        0.0,
        4.282119547838192e-09,
        -0.02539999783039093,
        0.0,
        0.0,
        0.02539999783039093,
        4.282119547838192e-09,
        0.0,
        0.0,
        0.0,
        0.0,
        1.0
      ],
      "name": "_5"
    },
    {
      "children": [
        18
      ],
      "name": "Object_11"
    },
    {
      "mesh": 2,
      "name": "Object_2"
    },
    {
      "children": [
        20
      ],
      "matrix": [
        0.02539999969303608,
        0.0,
        0.0,
        0.0,
        0.0,
        4.282119547838192e-09,
        -0.02539999783039093,
        0.0,
        0.0,
        0.02539999783039093,
        4.282119547838192e-09,
        0.0,
        0.0,
        0.0,
        0.0,
        1.0
      ],
      "name": "_6"
    },
    {
      "children": [
        21
      ],
      "name": "Object_13"
    },
    {
      "mesh": 3,
      "name": "Object_3"
    }
  ],
  "samplers": [
    {
      "magFilter": 9729,
      "minFilter": 9987,
      "wrapS": 10497,
      "wrapT": 10497
    }
  ],
  "scene": 0,
  "scenes": [
    {
      "name": "Sketchfab_Scene",
      "nodes": [
        0
      ]
    }
  ],
  "textures": [
    {
      "sampler": 0,
      "source": 0
    }
  ]
}
