{
  "accessors": [
    {
      "bufferView": 2,
      "componentType": 5126,
      "count": 16320,
      "max": [
        34.54020309448242,
        124.78500366210938,
        88.031005859375
      ],
      "min": [
        -34.540199279785156,
        -57.047393798828125,
        0.0
      ],
      "type": "VEC3"
    },
    {
      "bufferView": 2,
      "byteOffset": 195840,
      "componentType": 5126,
      "count": 16320,
      "max": [
        0.9996970891952515,
        0.9999904036521912,
        0.9999992847442627
      ],
      "min": [
        -0.9996970891952515,
        -0.9992891550064087,
        -1.0
      ],
      "type": "VEC3"
    },
    {
      "bufferView": 1,
      "componentType": 5126,
      "count": 16320,
      "max": [
        0.9111328125,
        0.9111328125
      ],
      "min": [
        0.001953125,
        0.001953125
      ],
      "type": "VEC2"
    },
    {
      "bufferView": 1,
      "byteOffset": 130560,
      "componentType": 5126,
      "count": 16320,
      "max": [
        0.9111328125,
        0.9111328125
      ],
      "min": [
        0.001953125,
        0.001953125
      ],
      "type": "VEC2"
    },
    {
      "bufferView": 1,
      "byteOffset": 261120,
      "componentType": 5126,
      "count": 16320,
      "max": [
        0.9111328125,
        0.9111328125
      ],
      "min": [
        0.001953125,
        0.001953125
      ],
      "type": "VEC2"
    },
    {
      "bufferView": 0,
      "componentType": 5125,
      "count": 16344,
      "type": "SCALAR"
    },
    {
      "bufferView": 2,
      "byteOffset": 391680,
      "componentType": 5126,
      "count": 180,
      "max": [
        11.747798919677734,
        -45.681793212890625,
        51.557594299316406
      ],
      "min": [
        -11.747800827026367,
        -55.173095703125,
        43.06729507446289
      ],
      "type": "VEC3"
    },
    {
      "bufferView": 2,
      "byteOffset": 393840,
      "componentType": 5126,
      "count": 180,
      "max": [
        0.9371615648269653,
        -0.329630970954895,
        0.21706727147102356
      ],
      "min": [
        -0.9371616244316101,
        -0.940981388092041,
        -0.11433114111423492
      ],
      "type": "VEC3"
    },
    {
      "bufferView": 1,
      "byteOffset": 391680,
      "componentType": 5126,
      "count": 180,
      "max": [
        1.0,
        0.0888671875
      ],
      "min": [
        0.9130859375,
        0.001953125
      ],
      "type": "VEC2"
    },
    {
      "bufferView": 1,
      "byteOffset": 393120,
      "componentType": 5126,
      "count": 180,
      "max": [
        1.0,
        0.0888671875
      ],
      "min": [
        0.9130859375,
        0.001953125
      ],
      "type": "VEC2"
    },
    {
      "bufferView": 1,
      "byteOffset": 394560,
      "componentType": 5126,
      "count": 180,
      "max": [
        1.0,
        0.0888671875
      ],
      "min": [
        0.9130859375,
        0.001953125
      ],
      "type": "VEC2"
    },
    {
      "bufferView": 0,
      "byteOffset": 65376,
      "componentType": 5125,
      "count": 180,
      "type": "SCALAR"
    },
    {
      "bufferView": 2,
      "byteOffset": 396000,
      "componentType": 5126,
      "count": 96,
      "max": [
        4.33298921585083,
        -50.14580154418945,
        40.5558967590332
      ],
      "min": [
        -4.332991123199463,
        -56.3876953125,
        35.391597747802734
      ],
      "type": "VEC3"
    },
    {
      "bufferView": 2,
      "byteOffset": 397152,
      "componentType": 5126,
      "count": 96,
      "max": [
        0.5543234348297119,
        -0.3569086790084839,
        -0.22921453416347504
      ],
      "min": [
        -0.5543234348297119,
        -0.9146779775619507,
        -0.9110294580459595
      ],
      "type": "VEC3"
    },
    {
      "bufferView": 1,
      "byteOffset": 396000,
      "componentType": 5126,
      "count": 96,
      "max": [
        1.0,
        0.177734375
      ],
      "min": [
        0.9130859375,
        0.0908203125
      ],
      "type": "VEC2"
    },
    {
      "bufferView": 1,
      "byteOffset": 396768,
      "componentType": 5126,
      "count": 96,
      "max": [
        1.0,
        0.177734375
      ],
      "min": [
        0.9130859375,
        0.0908203125
      ],
      "type": "VEC2"
    },
    {
      "bufferView": 1,
      "byteOffset": 397536,
      "componentType": 5126,
      "count": 96,
      "max": [
        1.0,
        0.177734375
      ],
      "min": [
        0.9130859375,
        0.0908203125
      ],
      "type": "VEC2"
    },
    {
      "bufferView": 0,
      "byteOffset": 66096,
      "componentType": 5125,
      "count": 96,
      "type": "SCALAR"
    }
  ],
  "asset": {
    "extras": {
      "author": "hkgiao79 (https://sketchfab.com/hkgiao79)",
      "license": "CC-BY-4.0 (http://creativecommons.org/licenses/by/4.0/)",
      "source": "https://sketchfab.com/3d-models/vaporeon-3d-render-0c6d7de84fe64b79ad138d22039a4ae4",
      "title": "Vaporeon 3D Render"
    },
    "generator": "Sketchfab-12.66.0",
    "version": "2.0"
  },
  "bufferViews": [
    {
      "buffer": 0,
      "byteLength": 66480,
      "name": "floatBufferViews",
      "target": 34963
    },
    {
      "buffer": 0,
      "byteLength": 398304,
      "byteOffset": 66480,
      "byteStride": 8,
      "name": "floatBufferViews",
      "target": 34962
    },
    {
      "buffer": 0,
      "byteLength": 398304,
      "byteOffset": 464784,
      "byteStride": 12,
      "name": "floatBufferViews",
      "target": 34962
    }
  ],
  "buffers": [
    {
      "byteLength": 863088,
      "uri": "scene.bin"
    }
  ],
  "extensionsRequired": [
    "KHR_materials_pbrSpecularGlossiness"
  ],
  "extensionsUsed": [
    "KHR_materials_pbrSpecularGlossiness"
  ],
  "images": [
    {
      "uri": "textures/material_0_diffuse.png"
    },
    {
      "uri": "textures/material_0_specularGlossiness.png"
    }
  ],
  "materials": [
    {
      "doubleSided": true,
      "extensions": {
        "KHR_materials_pbrSpecularGlossiness": {
          "diffuseFactor": [
            1.0,
            1.0,
            1.0,
            1.0
          ],
          "diffuseTexture": {
            "index": 0
          },
          "glossinessFactor": 1.0,
          "specularFactor": [
            1.0,
            1.0,
            1.0
          ],
          "specularGlossinessTexture": {
            "index": 1
          }
        }
      },
      "name": "material_0"
    }
  ],
  "meshes": [
    {
      "name": "Object_0",
      "primitives": [
        {
          "attributes": {
            "NORMAL": 1,
            "POSITION": 0,
            "TEXCOORD_0": 2,
            "TEXCOORD_1": 3,
            "TEXCOORD_2": 4
          },
          "indices": 5,
          "material": 0,
          "mode": 4
        }
      ]
    },
    {
      "name": "Object_1",
      "primitives": [
        {
          "attributes": {
            "NORMAL": 7,
            "POSITION": 6,
            "TEXCOORD_0": 8,
            "TEXCOORD_1": 9,
            "TEXCOORD_2": 10
          },
          "indices": 11,
          "material": 0,
          "mode": 4
        }
      ]
    },
    {
      "name": "Object_2",
      "primitives": [
        {
          "attributes": {
            "NORMAL": 13,
            "POSITION": 12,
            "TEXCOORD_0": 14,
            "TEXCOORD_1": 15,
            "TEXCOORD_2": 16
          },
          "indices": 17,
          "material": 0,
          "mode": 4
        }
      ]
    }
  ],
  "nodes": [
    {
      "children": [
        1
      ],
      "matrix": [
        1.0,
        0.0,
        0.0,
        0.0,
        0.0,
        2.220446049250313e-16,
        -1.0,
        0.0,
        0.0,
        1.0,
        2.220446049250313e-16,
        0.0,
        0.0,
        0.0,
        0.0,
        1.0
      ],
      "name": "Sketchfab_model"
    },
    {
      "children": [
        2
      ],
      "name": "root"
    },
    {
      "children": [
        3
      ],
      "matrix": [
        1.0,
        0.0,
        0.0,
        0.0,
        0.0,
        2.220446049250313e-16,
        1.0,
        0.0,
        0.0,
        -1.0,
        2.220446049250313e-16,
        0.0,
        0.0,
        0.0,
        0.0,
        1.0
      ],
      "name": "GLTF_SceneRootNode"
    },
    {
      "children": [
        4
      ],
      "name": "root_0"
    },
    {
      "children": [
        5
      ],
      "matrix": [
        76.4453328626915,
        0.0,
        -12.862059493572847,
        0.0,
        0.0,
        77.51981353759766,
        0.0,
        0.0,
        12.862059493572847,
        0.0,
        76.4453328626915,
        0.0,
        -6.43593480731397e-08,
        7.450581124279765e-11,
        179.0145263671875,
        1.0
      ],
      "name": "node_id22_1"
    },
    {
      "children": [
        6,
        8,
        10
      ],
      "matrix": [
        1.0,
        0.0,
        0.0,
        0.0,
        0.0,
        1.0,
        0.0,
        0.0,
        0.0,
        0.0,
        1.0,
        0.0,
        -4.8446654687950286e-08,
        -1.1179938316345215,
        0.8602676391601563,
        1.0
      ],
      "name": "node_id23_2"
    },
    {
      "children": [
        7
      ],
      "matrix": [
        0.02539999969303608,
        -0.0,
        0.0,
        0.0,
        0.0,
        4.282119516290986e-09,
        -0.025399997830390566,
        0.0,
        0.0,
        0.025399997830390566,
        4.282119516290986e-09,
        0.0,
        0.0,
        0.0,
        0.0,
        1.0
      ],
      "name": "_3"
    },
    {
      "mesh": 0,
      "name": "Object_7"
    },
    {
      "children": [
        9
      ],
      "matrix": [
        0.02539999969303608,
        -0.0,
        0.0,
        0.0,
        0.0,
        4.282119516290986e-09,
        -0.025399997830390566,
        0.0,
        0.0,
        0.025399997830390566,
        4.282119516290986e-09,
        0.0,
        0.0,
        0.0,
        0.0,
        1.0
      ],
      "name": "_4"
    },
    {
      "mesh": 1,
      "name": "Object_9"
    },
    {
      "children": [
        11
      ],
      "matrix": [
        0.02539999969303608,
        -0.0,
        0.0,
        0.0,
        0.0,
        4.282119516290986e-09,
        -0.025399997830390566,
        0.0,
        0.0,
        0.025399997830390566,
        4.282119516290986e-09,
        0.0,
        0.0,
        0.0,
        0.0,
        1.0
      ],
      "name": "_5"
    },
    {
      "mesh": 2,
      "name": "Object_11"
    }
  ],
  "samplers": [
    {
      "magFilter": 9729,
      "minFilter": 9987,
      "wrapS": 10497,
      "wrapT": 10497
    }
  ],
  "scene": 0,
  "scenes": [
    {
      "name": "Sketchfab_Scene",
      "nodes": [
        0
      ]
    }
  ],
  "textures": [
    {
      "sampler": 0,
      "source": 0
    },
    {
      "sampler": 0,
      "source": 1
    }
  ]
}
