{
  "accessors": [
    {
      "bufferView": 2,
      "componentType": 5126,
      "count": 3078,
      "max": [
        23.438602447509766,
        76.27230834960938,
        45.81420135498047
      ],
      "min": [
        -23.438600540161133,
        9.999999747378752e-06,
        -33.342498779296875
      ],
      "type": "VEC3"
    },
    {
      "bufferView": 2,
      "byteOffset": 36936,
      "componentType": 5126,
      "count": 3078,
      "max": [
        0.9992657899856567,
        0.9999908208847046,
        0.9998806118965149
      ],
      "min": [
        -0.9992657899856567,
        -1.0,
        -0.9995519518852234
      ],
      "type": "VEC3"
    },
    {
      "bufferView": 1,
      "componentType": 5126,
      "count": 3078,
      "max": [
        1.0,
        0.9922119975090027
      ],
      "min": [
        0.0,
        0.0073999762535095215
      ],
      "type": "VEC2"
    },
    {
      "bufferView": 0,
      "componentType": 5125,
      "count": 14112,
      "type": "SCALAR"
    },
    {
      "bufferView": 2,
      "byteOffset": 73872,
      "componentType": 5126,
      "count": 136,
      "max": [
        9.812849998474121,
        55.15480041503906,
        44.146400451660156
      ],
      "min": [
        -9.812849998474121,
        42.95709991455078,
        32.12419891357422
      ],
      "type": "VEC3"
    },
    {
      "bufferView": 2,
      "byteOffset": 75504,
      "componentType": 5126,
      "count": 136,
      "max": [
        0.9718206524848938,
        0.8064448237419128,
        0.8727457523345947
      ],
      "min": [
        -0.9718206524848938,
        -0.04389572516083717,
        0.23159879446029663
      ],
      "type": "VEC3"
    },
    {
      "bufferView": 1,
      "byteOffset": 24624,
      "componentType": 5126,
      "count": 136,
      "max": [
        0.49219000339508057,
        -0.759719967842102
      ],
      "min": [
        0.007813000120222569,
        -0.9843800067901611
      ],
      "type": "VEC2"
    },
    {
      "bufferView": 0,
      "byteOffset": 56448,
      "componentType": 5125,
      "count": 648,
      "type": "SCALAR"
    }
  ],
  "asset": {
    "extras": {
      "author": "drewsdigitaldesigns (https://sketchfab.com/drewsdigitaldesigns)",
      "license": "CC-BY-4.0 (http://creativecommons.org/licenses/by/4.0/)",
      "source": "https://sketchfab.com/3d-models/jolteon-577b01ffaccf469790eb69effa449e27",
      "title": "Jolteon"
    },
    "generator": "Sketchfab-15.1.0",
    "version": "2.0"
  },
  "bufferViews": [
    {
      "buffer": 0,
      "byteLength": 59040,
      "name": "floatBufferViews",
      "target": 34963
    },
    {
      "buffer": 0,
      "byteLength": 25712,
      "byteOffset": 59040,
      "byteStride": 8,
      "name": "floatBufferViews",
      "target": 34962
    },
    {
      "buffer": 0,
      "byteLength": 77136,
      "byteOffset": 84752,
      "byteStride": 12,
      "name": "floatBufferViews",
      "target": 34962
    }
  ],
  "buffers": [
    {
      "byteLength": 161888,
      "uri": "scene.bin"
    }
  ],
  "images": [
    {
      "uri": "textures/Material_10_baseColor.jpeg"
    },
    {
      "uri": "textures/Material_11_baseColor.jpeg"
    }
  ],
  "materials": [
    {
      "doubleSided": true,
      "name": "Material_10",
      "pbrMetallicRoughness": {
        "baseColorTexture": {
          "index": 0
        },
        "metallicFactor": 0.0,
        "roughnessFactor": 0.892971
      }
    },
    {
      "doubleSided": true,
      "name": "Material_11",
      "pbrMetallicRoughness": {
        "baseColorTexture": {
          "index": 1
        },
        "metallicFactor": 0.0,
        "roughnessFactor": 0.892971
      }
    }
  ],
  "meshes": [
    {
      "name": "Jolteon_Material__10_0",
      "primitives": [
        {
          "attributes": {
            "NORMAL": 1,
            "POSITION": 0,
            "TEXCOORD_0": 2
          },
          "indices": 3,
          "material": 0,
          "mode": 4
        }
      ]
    },
    {
      "name": "Jolteon_Material__11_0",
      "primitives": [
        {
          "attributes": {
            "NORMAL": 5,
            "POSITION": 4,
            "TEXCOORD_0": 6
          },
          "indices": 7,
          "material": 1,
          "mode": 4
        }
      ]
    }
  ],
  "nodes": [
    {
      "children": [
        1
      ],
      "matrix": [
        1.0,
        0.0,
        0.0,
        0.0,
        0.0,
        2.220446049250313e-16,
        -1.0,
        0.0,
        0.0,
        1.0,
        2.220446049250313e-16,
        0.0,
        0.0,
        0.0,
        0.0,
        1.0
      ],
      "name": "Sketchfab_model"
    },
    {
      "children": [
        2,
        3
      ],
      "matrix": [
        0.009999999776482582,
        0.0,
        0.0,
        0.0,
        0.0,
        2.2204459996194763e-18,
        0.009999999776482582,
        0.0,
        0.0,
        -0.009999999776482582,
        2.2204459996194763e-18,
        0.0,
        0.0,
        0.0,
        0.0,
        1.0
      ],
      "name": "USDRoot"
    },
    {
      "mesh": 0,
      "name": "Jolteon_Material__10_0"
    },
    {
      "mesh": 1,
      "name": "Jolteon_Material__11_0"
    }
  ],
  "samplers": [
    {
      "magFilter": 9729,
      "minFilter": 9987,
      "wrapS": 10497,
      "wrapT": 10497
    }
  ],
  "scene": 0,
  "scenes": [
    {
      "name": "Sketchfab_Scene",
      "nodes": [
        0
      ]
    }
  ],
  "textures": [
    {
      "sampler": 0,
      "source": 0
    },
    {
      "sampler": 0,
      "source": 1
    }
  ]
}
