{
  "accessors": [
    {
      "bufferView": 2,
      "componentType": 5126,
      "count": 2174,
      "max": [
        23.286897659301758,
        84.09649658203125,
        43.01870346069336
      ],
      "min": [
        -23.28689956665039,
        -1.1038486781805943e-14,
        -67.14830017089844
      ],
      "type": "VEC3"
    },
    {
      "bufferView": 2,
      "byteOffset": 26088,
      "componentType": 5126,
      "count": 2174,
      "max": [
        0.999439001083374,
        0.9999716877937317,
        0.9991297125816345
      ],
      "min": [
        -0.999439001083374,
        -1.0,
        -0.9998476505279541
      ],
      "type": "VEC3"
    },
    {
      "bufferView": 1,
      "componentType": 5126,
      "count": 2174,
      "max": [
        0.9941409826278687,
        0.9921879768371582
      ],
      "min": [
        0.005859000142663717,
        0.01007002592086792
      ],
      "type": "VEC2"
    },
    {
      "bufferView": 0,
      "componentType": 5125,
      "count": 10098,
      "type": "SCALAR"
    },
    {
      "bufferView": 2,
      "byteOffset": 52176,
      "componentType": 5126,
      "count": 74,
      "max": [
        10.000800132751465,
        63.559898376464844,
        41.46179962158203
      ],
      "min": [
        -10.000800132751465,
        50.94660186767578,
        31.535799026489258
      ],
      "type": "VEC3"
    },
    {
      "bufferView": 2,
      "byteOffset": 53064,
      "componentType": 5126,
      "count": 74,
      "max": [
        0.9249488711357117,
        0.5560489892959595,
        0.9567916393280029
      ],
      "min": [
        -0.9249482750892639,
        -0.42649564146995544,
        0.19775232672691345
      ],
      "type": "VEC3"
    },
    {
      "bufferView": 1,
      "byteOffset": 17392,
      "componentType": 5126,
      "count": 74,
      "max": [
        0.4851300120353699,
        -0.7584099769592285
      ],
      "min": [
        0.014872999861836433,
        -0.9915900230407715
      ],
      "type": "VEC2"
    },
    {
      "bufferView": 0,
      "byteOffset": 40392,
      "componentType": 5125,
      "count": 300,
      "type": "SCALAR"
    },
    {
      "bufferView": 2,
      "byteOffset": 53952,
      "componentType": 5126,
      "count": 66,
      "max": [
        8.109589576721191,
        51.12179946899414,
        41.91510009765625
      ],
      "min": [
        -8.109580039978027,
        46.070098876953125,
        32.01390075683594
      ],
      "type": "VEC3"
    },
    {
      "bufferView": 2,
      "byteOffset": 54744,
      "componentType": 5126,
      "count": 66,
      "max": [
        0.8614774346351624,
        -0.2657053768634796,
        0.8100264668464661
      ],
      "min": [
        -0.8614762425422668,
        -0.9989650249481201,
        0.031541500240564346
      ],
      "type": "VEC3"
    },
    {
      "bufferView": 1,
      "byteOffset": 17984,
      "componentType": 5126,
      "count": 66,
      "max": [
        0.49219000339508057,
        -1.7604401111602783
      ],
      "min": [
        0.007813000120222569,
        -1.9895598888397217
      ],
      "type": "VEC2"
    },
    {
      "bufferView": 0,
      "byteOffset": 41592,
      "componentType": 5125,
      "count": 312,
      "type": "SCALAR"
    }
  ],
  "asset": {
    "extras": {
      "author": "drewsdigitaldesigns (https://sketchfab.com/drewsdigitaldesigns)",
      "license": "CC-BY-4.0 (http://creativecommons.org/licenses/by/4.0/)",
      "source": "https://sketchfab.com/3d-models/umbreon-edd472b08b254e09b57ab46a7a06334b",
      "title": "Umbreon"
    },
    "generator": "Sketchfab-15.1.0",
    "version": "2.0"
  },
  "bufferViews": [
    {
      "buffer": 0,
      "byteLength": 42840,
      "name": "floatBufferViews",
      "target": 34963
    },
    {
      "buffer": 0,
      "byteLength": 18512,
      "byteOffset": 42840,
      "byteStride": 8,
      "name": "floatBufferViews",
      "target": 34962
    },
    {
      "buffer": 0,
      "byteLength": 55536,
      "byteOffset": 61352,
      "byteStride": 12,
      "name": "floatBufferViews",
      "target": 34962
    }
  ],
  "buffers": [
    {
      "byteLength": 116888,
      "uri": "scene.bin"
    }
  ],
  "images": [
    {
      "uri": "textures/Material_92_baseColor.jpeg"
    },
    {
      "uri": "textures/Material_93_baseColor.jpeg"
    },
    {
      "uri": "textures/Material_94_baseColor.jpeg"
    }
  ],
  "materials": [
    {
      "doubleSided": true,
      "name": "Material_92",
      "pbrMetallicRoughness": {
        "baseColorTexture": {
          "index": 0
        },
        "metallicFactor": 0.0,
        "roughnessFactor": 0.892971
      }
    },
    {
      "doubleSided": true,
      "name": "Material_93",
      "pbrMetallicRoughness": {
        "baseColorTexture": {
          "index": 1
        },
        "metallicFactor": 0.0,
        "roughnessFactor": 0.892971
      }
    },
    {
      "doubleSided": true,
      "name": "Material_94",
      "pbrMetallicRoughness": {
        "baseColorTexture": {
          "index": 2
        },
        "metallicFactor": 0.0,
        "roughnessFactor": 0.892971
      }
    }
  ],
  "meshes": [
    {
      "name": "Umbreon_Material__92_0",
      "primitives": [
        {
          "attributes": {
            "NORMAL": 1,
            "POSITION": 0,
            "TEXCOORD_0": 2
          },
          "indices": 3,
          "material": 0,
          "mode": 4
        }
      ]
    },
    {
      "name": "Umbreon_Material__93_0",
      "primitives": [
        {
          "attributes": {
            "NORMAL": 5,
            "POSITION": 4,
            "TEXCOORD_0": 6
          },
          "indices": 7,
          "material": 1,
          "mode": 4
        }
      ]
    },
    {
      "name": "Umbreon_Material__94_0",
      "primitives": [
        {
          "attributes": {
            "NORMAL": 9,
            "POSITION": 8,
            "TEXCOORD_0": 10
          },
          "indices": 11,
          "material": 2,
          "mode": 4
        }
      ]
    }
  ],
  "nodes": [
    {
      "children": [
        1
      ],
      "matrix": [
        1.0,
        0.0,
        0.0,
        0.0,
        0.0,
        2.220446049250313e-16,
        -1.0,
        0.0,
        0.0,
        1.0,
        2.220446049250313e-16,
        0.0,
        0.0,
        0.0,
        0.0,
        1.0
      ],
      "name": "Sketchfab_model"
    },
    {
      "children": [
        2,
        3,
        4
      ],
      "matrix": [
        0.009999999776482582,
        0.0,
        0.0,
        0.0,
        0.0,
        2.2204459996194763e-18,
        0.009999999776482582,
        0.0,
        0.0,
        -0.009999999776482582,
        2.2204459996194763e-18,
        0.0,
        0.0,
        0.0,
        0.0,
        1.0
      ],
      "name": "USDRoot"
    },
    {
      "mesh": 0,
      "name": "Umbreon_Material__92_0"
    },
    {
      "mesh": 1,
      "name": "Umbreon_Material__93_0"
    },
    {
      "mesh": 2,
      "name": "Umbreon_Material__94_0"
    }
  ],
  "samplers": [
    {
      "magFilter": 9729,
      "minFilter": 9987,
      "wrapS": 10497,
      "wrapT": 10497
    }
  ],
  "scene": 0,
  "scenes": [
    {
      "name": "Sketchfab_Scene",
      "nodes": [
        0
      ]
    }
  ],
  "textures": [
    {
      "sampler": 0,
      "source": 0
    },
    {
      "sampler": 0,
      "source": 1
    },
    {
      "sampler": 0,
      "source": 2
    }
  ]
}
