{
  "accessors": [
    {
      "bufferView": 2,
      "componentType": 5126,
      "count": 1065,
      "max": [
        1.6521406173706055,
        2.270137310028076,
        1.962938666343689
      ],
      "min": [
        -2.564528465270996,
        -2.275815963745117,
        -1.1519392728805542
      ],
      "type": "VEC3"
    },
    {
      "bufferView": 2,
      "byteOffset": 12780,
      "componentType": 5126,
      "count": 1065,
      "max": [
        0.9982470273971558,
        0.9969043731689453,
        0.9951407313346863
      ],
      "min": [
        -0.998370349407196,
        -0.9999997615814209,
        -0.9865698218345642
      ],
      "type": "VEC3"
    },
    {
      "bufferView": 3,
      "componentType": 5126,
      "count": 1065,
      "max": [
        0.9989035725593567,
        0.9998268485069275,
        1.0,
        1.0
      ],
      "min": [
        -0.9901627898216248,
        -0.9980226755142212,
        -1.0,
        1.0
      ],
      "type": "VEC4"
    },
    {
      "bufferView": 1,
      "componentType": 5126,
      "count": 1065,
      "max": [
        0.9978951215744019,
        0.9981679320335388
      ],
      "min": [
        0.0018403440481051803,
        0.001834120019339025
      ],
      "type": "VEC2"
    },
    {
      "bufferView": 1,
      "byteOffset": 8520,
      "componentType": 5126,
      "count": 1065,
      "max": [
        0.9978951215744019,
        0.9981679320335388
      ],
      "min": [
        0.0018403440481051803,
        0.001834120019339025
      ],
      "type": "VEC2"
    },
    {
      "bufferView": 0,
      "componentType": 5125,
      "count": 2562,
      "type": "SCALAR"
    },
    {
      "bufferView": 2,
      "byteOffset": 25560,
      "componentType": 5126,
      "count": 4,
      "max": [
        1.0,
        1.0,
        0.0
      ],
      "min": [
        -1.0,
        -1.0,
        0.0
      ],
      "type": "VEC3"
    },
    {
      "bufferView": 2,
      "byteOffset": 25608,
      "componentType": 5126,
      "count": 4,
      "max": [
        0.0,
        0.0,
        1.0
      ],
      "min": [
        0.0,
        0.0,
        1.0
      ],
      "type": "VEC3"
    },
    {
      "bufferView": 1,
      "byteOffset": 17040,
      "componentType": 5126,
      "count": 4,
      "max": [
        1.0,
        1.0
      ],
      "min": [
        0.0,
        0.0
      ],
      "type": "VEC2"
    },
    {
      "bufferView": 1,
      "byteOffset": 17072,
      "componentType": 5126,
      "count": 4,
      "max": [
        1.0,
        1.0
      ],
      "min": [
        0.0,
        0.0
      ],
      "type": "VEC2"
    },
    {
      "bufferView": 0,
      "byteOffset": 10248,
      "componentType": 5125,
      "count": 6,
      "type": "SCALAR"
    },
    {
      "bufferView": 2,
      "byteOffset": 25656,
      "componentType": 5126,
      "count": 1894,
      "max": [
        1.0810177326202393,
        0.5223520994186401,
        0.6684457063674927
      ],
      "min": [
        -1.3400964736938477,
        -2.0033130645751953,
        -0.2509148120880127
      ],
      "type": "VEC3"
    },
    {
      "bufferView": 2,
      "byteOffset": 48384,
      "componentType": 5126,
      "count": 1894,
      "max": [
        0.8853500485420227,
        0.9975956082344055,
        1.0
      ],
      "min": [
        -0.9952970147132874,
        -0.9920852780342102,
        -0.578974723815918
      ],
      "type": "VEC3"
    },
    {
      "bufferView": 1,
      "byteOffset": 17104,
      "componentType": 5126,
      "count": 1894,
      "max": [
        0.9919245839118958,
        0.9735335111618042
      ],
      "min": [
        0.0647597387433052,
        0.0
      ],
      "type": "VEC2"
    },
    {
      "bufferView": 0,
      "byteOffset": 10272,
      "componentType": 5125,
      "count": 2034,
      "type": "SCALAR"
    }
  ],
  "asset": {
    "extras": {
      "author": "metrosp (https://sketchfab.com/metrosp)",
      "license": "CC-BY-4.0 (http://creativecommons.org/licenses/by/4.0/)",
      "source": "https://sketchfab.com/3d-models/stylized-tree-stump-00c944f33e1046fdb16506ece49a3914",
      "title": "[Stylized] Tree stump"
    },
    "generator": "Sketchfab-12.68.0",
    "version": "2.0"
  },
  "bufferViews": [
    {
      "buffer": 0,
      "byteLength": 18408,
      "name": "floatBufferViews",
      "target": 34963
    },
    {
      "buffer": 0,
      "byteLength": 32256,
      "byteOffset": 18408,
      "byteStride": 8,
      "name": "floatBufferViews",
      "target": 34962
    },
    {
      "buffer": 0,
      "byteLength": 71112,
      "byteOffset": 50664,
      "byteStride": 12,
      "name": "floatBufferViews",
      "target": 34962
    },
    {
      "buffer": 0,
      "byteLength": 17040,
      "byteOffset": 121776,
      "byteStride": 16,
      "name": "floatBufferViews",
      "target": 34962
    }
  ],
  "buffers": [
    {
      "byteLength": 138816,
      "uri": "scene.bin"
    }
  ],
  "images": [
    {
      "uri": "textures/Material.001_baseColor.png"
    },
    {
      "uri": "textures/Material.001_normal.png"
    },
    {
      "uri": "textures/Material.006_baseColor.png"
    },
    {
      "uri": "textures/Material.005_baseColor.png"
    }
  ],
  "materials": [
    {
      "doubleSided": true,
      "name": "Material.001",
      "normalTexture": {
        "index": 1
      },
      "pbrMetallicRoughness": {
        "baseColorTexture": {
          "index": 0
        },
        "metallicFactor": 0.0
      }
    },
    {
      "doubleSided": true,
      "name": "Material.006",
      "pbrMetallicRoughness": {
        "baseColorTexture": {
          "index": 2
        },
        "metallicFactor": 0.0
      }
    },
    {
      "alphaCutoff": 0.7252506551386584,
      "alphaMode": "MASK",
      "doubleSided": true,
      "name": "Material.005",
      "pbrMetallicRoughness": {
        "baseColorTexture": {
          "index": 3
        },
        "metallicFactor": 0.0,
        "roughnessFactor": 0.8040408206
      }
    }
  ],
  "meshes": [
    {
      "name": "Cylinder_Material.001_0",
      "primitives": [
        {
          "attributes": {
            "NORMAL": 1,
            "POSITION": 0,
            "TANGENT": 2,
            "TEXCOORD_0": 3,
            "TEXCOORD_1": 4
          },
          "indices": 5,
          "material": 0,
          "mode": 4
        }
      ]
    },
    {
      "name": "Plane_Material.006_0",
      "primitives": [
        {
          "attributes": {
            "NORMAL": 7,
            "POSITION": 6,
            "TEXCOORD_0": 8,
            "TEXCOORD_1": 9
          },
          "indices": 10,
          "material": 1,
          "mode": 4
        }
      ]
    },
    {
      "name": "Plane.025_Material.005_0",
      "primitives": [
        {
          "attributes": {
            "NORMAL": 12,
            "POSITION": 11,
            "TEXCOORD_0": 13
          },
          "indices": 14,
          "material": 2,
          "mode": 4
        }
      ]
    }
  ],
  "nodes": [
    {
      "children": [
        1
      ],
      "matrix": [
        1.0,
        0.0,
        0.0,
        0.0,
        0.0,
        2.220446049250313e-16,
        -1.0,
        0.0,
        0.0,
        1.0,
        2.220446049250313e-16,
        0.0,
        0.0,
        0.0,
        0.0,
        1.0
      ],
      "name": "Sketchfab_model"
    },
    {
      "children": [
        2
      ],
      "matrix": [
        1.0,
        0.0,
        0.0,
        0.0,
        0.0,
        0.0,
        1.0,
        0.0,
        0.0,
        -1.0,
        0.0,
        0.0,
        0.0,
        0.0,
        0.0,
        1.0
      ],
      "name": "tree.fbx"
    },
    {
      "children": [
        3,
        5,
        7
      ],
      "name": "RootNode"
    },
    {
      "children": [
        4
      ],
      "matrix": [
        100.0,
        0.0,
        0.0,
        0.0,
        0.0,
        -1.629206793918314e-05,
        -99.99999999999868,
        0.0,
        0.0,
        99.99999999999868,
        -1.629206793918314e-05,
        0.0,
        0.0,
        77.91327667236328,
        0.0,
        1.0
      ],
      "name": "Cylinder"
    },
    {
      "mesh": 0,
      "name": "Cylinder_Material.001_0"
    },
    {
      "children": [
        6
      ],
      "matrix": [
        319.2038269042969,
        0.0,
        0.0,
        0.0,
        -0.0,
        -5.20049043437206e-05,
        -319.20382690429267,
        0.0,
        0.0,
        319.20382690429267,
        -5.20049043437206e-05,
        0.0,
        -2.3620247840881348,
        -0.8646219968795776,
        35.16939926147461,
        1.0
      ],
      "name": "Plane"
    },
    {
      "mesh": 1,
      "name": "Plane_Material.006_0"
    },
    {
      "children": [
        8
      ],
      "matrix": [
        375.98675426051364,
        -31.55843791877548,
        -155.60858038925582,
        0.0,
        -158.41467952586004,
        -47.57448295389996,
        -373.11853028984984,
        0.0,
        10.712181631710816,
        404.1246261736633,
        -56.07597924205698,
        0.0,
        -52.457881927490234,
        6.3843488693237305,
        -335.6025085449219,
        1.0
      ],
      "name": "Plane.025"
    },
    {
      "mesh": 2,
      "name": "Plane.025_Material.005_0"
    }
  ],
  "samplers": [
    {
      "magFilter": 9729,
      "minFilter": 9987,
      "wrapS": 10497,
      "wrapT": 10497
    }
  ],
  "scene": 0,
  "scenes": [
    {
      "name": "Sketchfab_Scene",
      "nodes": [
        0
      ]
    }
  ],
  "textures": [
    {
      "sampler": 0,
      "source": 0
    },
    {
      "sampler": 0,
      "source": 1
    },
    {
      "sampler": 0,
      "source": 2
    },
    {
      "sampler": 0,
      "source": 3
    }
  ]
}
